<?xml version="1.0" encoding="utf-8" standalone="no"?>
<!DOCTYPE svg PUBLIC "-//W3C//DTD SVG 1.1//EN"
  "http://www.w3.org/Graphics/SVG/1.1/DTD/svg11.dtd">
<svg xmlns:xlink="http://www.w3.org/1999/xlink" width="504.392812pt" height="243.991pt" viewBox="0 0 504.392812 243.991" xmlns="http://www.w3.org/2000/svg" version="1.1">
 <metadata>
  <rdf:RDF xmlns:dc="http://purl.org/dc/elements/1.1/" xmlns:cc="http://creativecommons.org/ns#" xmlns:rdf="http://www.w3.org/1999/02/22-rdf-syntax-ns#">
   <cc:Work>
    <dc:type rdf:resource="http://purl.org/dc/dcmitype/StillImage"/>
    <dc:date>2026-07-01T13:13:33.306667</dc:date>
    <dc:format>image/svg+xml</dc:format>
    <dc:creator>
     <cc:Agent>
      <dc:title>Matplotlib v3.10.8, https://matplotlib.org/</dc:title>
     </cc:Agent>
    </dc:creator>
   </cc:Work>
  </rdf:RDF>
 </metadata>
 <defs>
  <style type="text/css">*{stroke-linejoin: round; stroke-linecap: butt}</style>
 </defs>
 <g id="figure_1">
  <g id="patch_1">
   <path d="M 0 243.991 
L 504.392812 243.991 
L 504.392812 0 
L 0 0 
z
" style="fill: #ffffff"/>
  </g>
  <g id="axes_1">
   <g id="patch_2">
    <path d="M 39.632812 209.338188 
L 247.614631 209.338188 
L 247.614631 20.842188 
L 39.632812 20.842188 
z
" style="fill: #ffffff"/>
   </g>
   <g id="matplotlib.axis_1">
    <g id="xtick_1">
     <g id="line2d_1">
      <path d="M 49.086532 209.338188 
L 49.086532 20.842188 
" clip-path="url(#p28a93af399)" style="fill: none; stroke: #b0b0b0; stroke-opacity: 0.25; stroke-width: 0.8; stroke-linecap: square"/>
     </g>
     <g id="line2d_2">
      <defs>
       <path id="mdb9fd32427" d="M 0 0 
L 0 3.5 
" style="stroke: #000000; stroke-width: 0.8"/>
      </defs>
      <g>
       <use xlink:href="#mdb9fd32427" x="49.086532" y="209.338188" style="stroke: #000000; stroke-width: 0.8"/>
      </g>
     </g>
     <g id="text_1">
      <!-- 0.00 -->
      <g transform="translate(40.180282 222.416937) scale(0.08 -0.08)">
       <defs>
        <path id="DejaVuSans-30" d="M 2034 4250 
Q 1547 4250 1301 3770 
Q 1056 3291 1056 2328 
Q 1056 1369 1301 889 
Q 1547 409 2034 409 
Q 2525 409 2770 889 
Q 3016 1369 3016 2328 
Q 3016 3291 2770 3770 
Q 2525 4250 2034 4250 
z
M 2034 4750 
Q 2819 4750 3233 4129 
Q 3647 3509 3647 2328 
Q 3647 1150 3233 529 
Q 2819 -91 2034 -91 
Q 1250 -91 836 529 
Q 422 1150 422 2328 
Q 422 3509 836 4129 
Q 1250 4750 2034 4750 
z
" transform="scale(0.015625)"/>
        <path id="DejaVuSans-2e" d="M 684 794 
L 1344 794 
L 1344 0 
L 684 0 
L 684 794 
z
" transform="scale(0.015625)"/>
       </defs>
       <use xlink:href="#DejaVuSans-30"/>
       <use xlink:href="#DejaVuSans-2e" transform="translate(63.623047 0)"/>
       <use xlink:href="#DejaVuSans-30" transform="translate(95.410156 0)"/>
       <use xlink:href="#DejaVuSans-30" transform="translate(159.033203 0)"/>
      </g>
     </g>
    </g>
    <g id="xtick_2">
     <g id="line2d_3">
      <path d="M 86.901408 209.338188 
L 86.901408 20.842188 
" clip-path="url(#p28a93af399)" style="fill: none; stroke: #b0b0b0; stroke-opacity: 0.25; stroke-width: 0.8; stroke-linecap: square"/>
     </g>
     <g id="line2d_4">
      <g>
       <use xlink:href="#mdb9fd32427" x="86.901408" y="209.338188" style="stroke: #000000; stroke-width: 0.8"/>
      </g>
     </g>
     <g id="text_2">
      <!-- 0.02 -->
      <g transform="translate(77.995158 222.416937) scale(0.08 -0.08)">
       <defs>
        <path id="DejaVuSans-32" d="M 1228 531 
L 3431 531 
L 3431 0 
L 469 0 
L 469 531 
Q 828 903 1448 1529 
Q 2069 2156 2228 2338 
Q 2531 2678 2651 2914 
Q 2772 3150 2772 3378 
Q 2772 3750 2511 3984 
Q 2250 4219 1831 4219 
Q 1534 4219 1204 4116 
Q 875 4013 500 3803 
L 500 4441 
Q 881 4594 1212 4672 
Q 1544 4750 1819 4750 
Q 2544 4750 2975 4387 
Q 3406 4025 3406 3419 
Q 3406 3131 3298 2873 
Q 3191 2616 2906 2266 
Q 2828 2175 2409 1742 
Q 1991 1309 1228 531 
z
" transform="scale(0.015625)"/>
       </defs>
       <use xlink:href="#DejaVuSans-30"/>
       <use xlink:href="#DejaVuSans-2e" transform="translate(63.623047 0)"/>
       <use xlink:href="#DejaVuSans-30" transform="translate(95.410156 0)"/>
       <use xlink:href="#DejaVuSans-32" transform="translate(159.033203 0)"/>
      </g>
     </g>
    </g>
    <g id="xtick_3">
     <g id="line2d_5">
      <path d="M 124.716284 209.338188 
L 124.716284 20.842188 
" clip-path="url(#p28a93af399)" style="fill: none; stroke: #b0b0b0; stroke-opacity: 0.25; stroke-width: 0.8; stroke-linecap: square"/>
     </g>
     <g id="line2d_6">
      <g>
       <use xlink:href="#mdb9fd32427" x="124.716284" y="209.338188" style="stroke: #000000; stroke-width: 0.8"/>
      </g>
     </g>
     <g id="text_3">
      <!-- 0.04 -->
      <g transform="translate(115.810034 222.416937) scale(0.08 -0.08)">
       <defs>
        <path id="DejaVuSans-34" d="M 2419 4116 
L 825 1625 
L 2419 1625 
L 2419 4116 
z
M 2253 4666 
L 3047 4666 
L 3047 1625 
L 3713 1625 
L 3713 1100 
L 3047 1100 
L 3047 0 
L 2419 0 
L 2419 1100 
L 313 1100 
L 313 1709 
L 2253 4666 
z
" transform="scale(0.015625)"/>
       </defs>
       <use xlink:href="#DejaVuSans-30"/>
       <use xlink:href="#DejaVuSans-2e" transform="translate(63.623047 0)"/>
       <use xlink:href="#DejaVuSans-30" transform="translate(95.410156 0)"/>
       <use xlink:href="#DejaVuSans-34" transform="translate(159.033203 0)"/>
      </g>
     </g>
    </g>
    <g id="xtick_4">
     <g id="line2d_7">
      <path d="M 162.53116 209.338188 
L 162.53116 20.842188 
" clip-path="url(#p28a93af399)" style="fill: none; stroke: #b0b0b0; stroke-opacity: 0.25; stroke-width: 0.8; stroke-linecap: square"/>
     </g>
     <g id="line2d_8">
      <g>
       <use xlink:href="#mdb9fd32427" x="162.53116" y="209.338188" style="stroke: #000000; stroke-width: 0.8"/>
      </g>
     </g>
     <g id="text_4">
      <!-- 0.06 -->
      <g transform="translate(153.62491 222.416937) scale(0.08 -0.08)">
       <defs>
        <path id="DejaVuSans-36" d="M 2113 2584 
Q 1688 2584 1439 2293 
Q 1191 2003 1191 1497 
Q 1191 994 1439 701 
Q 1688 409 2113 409 
Q 2538 409 2786 701 
Q 3034 994 3034 1497 
Q 3034 2003 2786 2293 
Q 2538 2584 2113 2584 
z
M 3366 4563 
L 3366 3988 
Q 3128 4100 2886 4159 
Q 2644 4219 2406 4219 
Q 1781 4219 1451 3797 
Q 1122 3375 1075 2522 
Q 1259 2794 1537 2939 
Q 1816 3084 2150 3084 
Q 2853 3084 3261 2657 
Q 3669 2231 3669 1497 
Q 3669 778 3244 343 
Q 2819 -91 2113 -91 
Q 1303 -91 875 529 
Q 447 1150 447 2328 
Q 447 3434 972 4092 
Q 1497 4750 2381 4750 
Q 2619 4750 2861 4703 
Q 3103 4656 3366 4563 
z
" transform="scale(0.015625)"/>
       </defs>
       <use xlink:href="#DejaVuSans-30"/>
       <use xlink:href="#DejaVuSans-2e" transform="translate(63.623047 0)"/>
       <use xlink:href="#DejaVuSans-30" transform="translate(95.410156 0)"/>
       <use xlink:href="#DejaVuSans-36" transform="translate(159.033203 0)"/>
      </g>
     </g>
    </g>
    <g id="xtick_5">
     <g id="line2d_9">
      <path d="M 200.346036 209.338188 
L 200.346036 20.842188 
" clip-path="url(#p28a93af399)" style="fill: none; stroke: #b0b0b0; stroke-opacity: 0.25; stroke-width: 0.8; stroke-linecap: square"/>
     </g>
     <g id="line2d_10">
      <g>
       <use xlink:href="#mdb9fd32427" x="200.346036" y="209.338188" style="stroke: #000000; stroke-width: 0.8"/>
      </g>
     </g>
     <g id="text_5">
      <!-- 0.08 -->
      <g transform="translate(191.439786 222.416937) scale(0.08 -0.08)">
       <defs>
        <path id="DejaVuSans-38" d="M 2034 2216 
Q 1584 2216 1326 1975 
Q 1069 1734 1069 1313 
Q 1069 891 1326 650 
Q 1584 409 2034 409 
Q 2484 409 2743 651 
Q 3003 894 3003 1313 
Q 3003 1734 2745 1975 
Q 2488 2216 2034 2216 
z
M 1403 2484 
Q 997 2584 770 2862 
Q 544 3141 544 3541 
Q 544 4100 942 4425 
Q 1341 4750 2034 4750 
Q 2731 4750 3128 4425 
Q 3525 4100 3525 3541 
Q 3525 3141 3298 2862 
Q 3072 2584 2669 2484 
Q 3125 2378 3379 2068 
Q 3634 1759 3634 1313 
Q 3634 634 3220 271 
Q 2806 -91 2034 -91 
Q 1263 -91 848 271 
Q 434 634 434 1313 
Q 434 1759 690 2068 
Q 947 2378 1403 2484 
z
M 1172 3481 
Q 1172 3119 1398 2916 
Q 1625 2713 2034 2713 
Q 2441 2713 2670 2916 
Q 2900 3119 2900 3481 
Q 2900 3844 2670 4047 
Q 2441 4250 2034 4250 
Q 1625 4250 1398 4047 
Q 1172 3844 1172 3481 
z
" transform="scale(0.015625)"/>
       </defs>
       <use xlink:href="#DejaVuSans-30"/>
       <use xlink:href="#DejaVuSans-2e" transform="translate(63.623047 0)"/>
       <use xlink:href="#DejaVuSans-30" transform="translate(95.410156 0)"/>
       <use xlink:href="#DejaVuSans-38" transform="translate(159.033203 0)"/>
      </g>
     </g>
    </g>
    <g id="xtick_6">
     <g id="line2d_11">
      <path d="M 238.160912 209.338188 
L 238.160912 20.842188 
" clip-path="url(#p28a93af399)" style="fill: none; stroke: #b0b0b0; stroke-opacity: 0.25; stroke-width: 0.8; stroke-linecap: square"/>
     </g>
     <g id="line2d_12">
      <g>
       <use xlink:href="#mdb9fd32427" x="238.160912" y="209.338188" style="stroke: #000000; stroke-width: 0.8"/>
      </g>
     </g>
     <g id="text_6">
      <!-- 0.10 -->
      <g transform="translate(229.254662 222.416937) scale(0.08 -0.08)">
       <defs>
        <path id="DejaVuSans-31" d="M 794 531 
L 1825 531 
L 1825 4091 
L 703 3866 
L 703 4441 
L 1819 4666 
L 2450 4666 
L 2450 531 
L 3481 531 
L 3481 0 
L 794 0 
L 794 531 
z
" transform="scale(0.015625)"/>
       </defs>
       <use xlink:href="#DejaVuSans-30"/>
       <use xlink:href="#DejaVuSans-2e" transform="translate(63.623047 0)"/>
       <use xlink:href="#DejaVuSans-31" transform="translate(95.410156 0)"/>
       <use xlink:href="#DejaVuSans-30" transform="translate(159.033203 0)"/>
      </g>
     </g>
    </g>
    <g id="text_7">
     <!-- epsilon -->
     <g transform="translate(127.548175 234.919281) scale(0.09 -0.09)">
      <defs>
       <path id="DejaVuSans-65" d="M 3597 1894 
L 3597 1613 
L 953 1613 
Q 991 1019 1311 708 
Q 1631 397 2203 397 
Q 2534 397 2845 478 
Q 3156 559 3463 722 
L 3463 178 
Q 3153 47 2828 -22 
Q 2503 -91 2169 -91 
Q 1331 -91 842 396 
Q 353 884 353 1716 
Q 353 2575 817 3079 
Q 1281 3584 2069 3584 
Q 2775 3584 3186 3129 
Q 3597 2675 3597 1894 
z
M 3022 2063 
Q 3016 2534 2758 2815 
Q 2500 3097 2075 3097 
Q 1594 3097 1305 2825 
Q 1016 2553 972 2059 
L 3022 2063 
z
" transform="scale(0.015625)"/>
       <path id="DejaVuSans-70" d="M 1159 525 
L 1159 -1331 
L 581 -1331 
L 581 3500 
L 1159 3500 
L 1159 2969 
Q 1341 3281 1617 3432 
Q 1894 3584 2278 3584 
Q 2916 3584 3314 3078 
Q 3713 2572 3713 1747 
Q 3713 922 3314 415 
Q 2916 -91 2278 -91 
Q 1894 -91 1617 61 
Q 1341 213 1159 525 
z
M 3116 1747 
Q 3116 2381 2855 2742 
Q 2594 3103 2138 3103 
Q 1681 3103 1420 2742 
Q 1159 2381 1159 1747 
Q 1159 1113 1420 752 
Q 1681 391 2138 391 
Q 2594 391 2855 752 
Q 3116 1113 3116 1747 
z
" transform="scale(0.015625)"/>
       <path id="DejaVuSans-73" d="M 2834 3397 
L 2834 2853 
Q 2591 2978 2328 3040 
Q 2066 3103 1784 3103 
Q 1356 3103 1142 2972 
Q 928 2841 928 2578 
Q 928 2378 1081 2264 
Q 1234 2150 1697 2047 
L 1894 2003 
Q 2506 1872 2764 1633 
Q 3022 1394 3022 966 
Q 3022 478 2636 193 
Q 2250 -91 1575 -91 
Q 1294 -91 989 -36 
Q 684 19 347 128 
L 347 722 
Q 666 556 975 473 
Q 1284 391 1588 391 
Q 1994 391 2212 530 
Q 2431 669 2431 922 
Q 2431 1156 2273 1281 
Q 2116 1406 1581 1522 
L 1381 1569 
Q 847 1681 609 1914 
Q 372 2147 372 2553 
Q 372 3047 722 3315 
Q 1072 3584 1716 3584 
Q 2034 3584 2315 3537 
Q 2597 3491 2834 3397 
z
" transform="scale(0.015625)"/>
       <path id="DejaVuSans-69" d="M 603 3500 
L 1178 3500 
L 1178 0 
L 603 0 
L 603 3500 
z
M 603 4863 
L 1178 4863 
L 1178 4134 
L 603 4134 
L 603 4863 
z
" transform="scale(0.015625)"/>
       <path id="DejaVuSans-6c" d="M 603 4863 
L 1178 4863 
L 1178 0 
L 603 0 
L 603 4863 
z
" transform="scale(0.015625)"/>
       <path id="DejaVuSans-6f" d="M 1959 3097 
Q 1497 3097 1228 2736 
Q 959 2375 959 1747 
Q 959 1119 1226 758 
Q 1494 397 1959 397 
Q 2419 397 2687 759 
Q 2956 1122 2956 1747 
Q 2956 2369 2687 2733 
Q 2419 3097 1959 3097 
z
M 1959 3584 
Q 2709 3584 3137 3096 
Q 3566 2609 3566 1747 
Q 3566 888 3137 398 
Q 2709 -91 1959 -91 
Q 1206 -91 779 398 
Q 353 888 353 1747 
Q 353 2609 779 3096 
Q 1206 3584 1959 3584 
z
" transform="scale(0.015625)"/>
       <path id="DejaVuSans-6e" d="M 3513 2113 
L 3513 0 
L 2938 0 
L 2938 2094 
Q 2938 2591 2744 2837 
Q 2550 3084 2163 3084 
Q 1697 3084 1428 2787 
Q 1159 2491 1159 1978 
L 1159 0 
L 581 0 
L 581 3500 
L 1159 3500 
L 1159 2956 
Q 1366 3272 1645 3428 
Q 1925 3584 2291 3584 
Q 2894 3584 3203 3211 
Q 3513 2838 3513 2113 
z
" transform="scale(0.015625)"/>
      </defs>
      <use xlink:href="#DejaVuSans-65"/>
      <use xlink:href="#DejaVuSans-70" transform="translate(61.523438 0)"/>
      <use xlink:href="#DejaVuSans-73" transform="translate(125 0)"/>
      <use xlink:href="#DejaVuSans-69" transform="translate(177.099609 0)"/>
      <use xlink:href="#DejaVuSans-6c" transform="translate(204.882812 0)"/>
      <use xlink:href="#DejaVuSans-6f" transform="translate(232.666016 0)"/>
      <use xlink:href="#DejaVuSans-6e" transform="translate(293.847656 0)"/>
     </g>
    </g>
   </g>
   <g id="matplotlib.axis_2">
    <g id="ytick_1">
     <g id="line2d_13">
      <path d="M 39.632812 200.770187 
L 247.614631 200.770187 
" clip-path="url(#p28a93af399)" style="fill: none; stroke: #b0b0b0; stroke-opacity: 0.25; stroke-width: 0.8; stroke-linecap: square"/>
     </g>
     <g id="line2d_14">
      <defs>
       <path id="m4bd8d1f057" d="M 0 0 
L -3.5 0 
" style="stroke: #000000; stroke-width: 0.8"/>
      </defs>
      <g>
       <use xlink:href="#m4bd8d1f057" x="39.632812" y="200.770187" style="stroke: #000000; stroke-width: 0.8"/>
      </g>
     </g>
     <g id="text_8">
      <!-- 0.0 -->
      <g transform="translate(19.910312 203.809562) scale(0.08 -0.08)">
       <use xlink:href="#DejaVuSans-30"/>
       <use xlink:href="#DejaVuSans-2e" transform="translate(63.623047 0)"/>
       <use xlink:href="#DejaVuSans-30" transform="translate(95.410156 0)"/>
      </g>
     </g>
    </g>
    <g id="ytick_2">
     <g id="line2d_15">
      <path d="M 39.632812 166.498188 
L 247.614631 166.498188 
" clip-path="url(#p28a93af399)" style="fill: none; stroke: #b0b0b0; stroke-opacity: 0.25; stroke-width: 0.8; stroke-linecap: square"/>
     </g>
     <g id="line2d_16">
      <g>
       <use xlink:href="#m4bd8d1f057" x="39.632812" y="166.498188" style="stroke: #000000; stroke-width: 0.8"/>
      </g>
     </g>
     <g id="text_9">
      <!-- 0.2 -->
      <g transform="translate(19.910312 169.537563) scale(0.08 -0.08)">
       <use xlink:href="#DejaVuSans-30"/>
       <use xlink:href="#DejaVuSans-2e" transform="translate(63.623047 0)"/>
       <use xlink:href="#DejaVuSans-32" transform="translate(95.410156 0)"/>
      </g>
     </g>
    </g>
    <g id="ytick_3">
     <g id="line2d_17">
      <path d="M 39.632812 132.226187 
L 247.614631 132.226187 
" clip-path="url(#p28a93af399)" style="fill: none; stroke: #b0b0b0; stroke-opacity: 0.25; stroke-width: 0.8; stroke-linecap: square"/>
     </g>
     <g id="line2d_18">
      <g>
       <use xlink:href="#m4bd8d1f057" x="39.632812" y="132.226187" style="stroke: #000000; stroke-width: 0.8"/>
      </g>
     </g>
     <g id="text_10">
      <!-- 0.4 -->
      <g transform="translate(19.910312 135.265562) scale(0.08 -0.08)">
       <use xlink:href="#DejaVuSans-30"/>
       <use xlink:href="#DejaVuSans-2e" transform="translate(63.623047 0)"/>
       <use xlink:href="#DejaVuSans-34" transform="translate(95.410156 0)"/>
      </g>
     </g>
    </g>
    <g id="ytick_4">
     <g id="line2d_19">
      <path d="M 39.632812 97.954187 
L 247.614631 97.954187 
" clip-path="url(#p28a93af399)" style="fill: none; stroke: #b0b0b0; stroke-opacity: 0.25; stroke-width: 0.8; stroke-linecap: square"/>
     </g>
     <g id="line2d_20">
      <g>
       <use xlink:href="#m4bd8d1f057" x="39.632812" y="97.954187" style="stroke: #000000; stroke-width: 0.8"/>
      </g>
     </g>
     <g id="text_11">
      <!-- 0.6 -->
      <g transform="translate(19.910312 100.993562) scale(0.08 -0.08)">
       <use xlink:href="#DejaVuSans-30"/>
       <use xlink:href="#DejaVuSans-2e" transform="translate(63.623047 0)"/>
       <use xlink:href="#DejaVuSans-36" transform="translate(95.410156 0)"/>
      </g>
     </g>
    </g>
    <g id="ytick_5">
     <g id="line2d_21">
      <path d="M 39.632812 63.682187 
L 247.614631 63.682187 
" clip-path="url(#p28a93af399)" style="fill: none; stroke: #b0b0b0; stroke-opacity: 0.25; stroke-width: 0.8; stroke-linecap: square"/>
     </g>
     <g id="line2d_22">
      <g>
       <use xlink:href="#m4bd8d1f057" x="39.632812" y="63.682187" style="stroke: #000000; stroke-width: 0.8"/>
      </g>
     </g>
     <g id="text_12">
      <!-- 0.8 -->
      <g transform="translate(19.910312 66.721563) scale(0.08 -0.08)">
       <use xlink:href="#DejaVuSans-30"/>
       <use xlink:href="#DejaVuSans-2e" transform="translate(63.623047 0)"/>
       <use xlink:href="#DejaVuSans-38" transform="translate(95.410156 0)"/>
      </g>
     </g>
    </g>
    <g id="ytick_6">
     <g id="line2d_23">
      <path d="M 39.632812 29.410187 
L 247.614631 29.410187 
" clip-path="url(#p28a93af399)" style="fill: none; stroke: #b0b0b0; stroke-opacity: 0.25; stroke-width: 0.8; stroke-linecap: square"/>
     </g>
     <g id="line2d_24">
      <g>
       <use xlink:href="#m4bd8d1f057" x="39.632812" y="29.410187" style="stroke: #000000; stroke-width: 0.8"/>
      </g>
     </g>
     <g id="text_13">
      <!-- 1.0 -->
      <g transform="translate(19.910312 32.449562) scale(0.08 -0.08)">
       <use xlink:href="#DejaVuSans-31"/>
       <use xlink:href="#DejaVuSans-2e" transform="translate(63.623047 0)"/>
       <use xlink:href="#DejaVuSans-30" transform="translate(95.410156 0)"/>
      </g>
     </g>
    </g>
    <g id="text_14">
     <!-- fraction of checks -->
     <g transform="translate(14.038594 155.093078) rotate(-90) scale(0.09 -0.09)">
      <defs>
       <path id="DejaVuSans-66" d="M 2375 4863 
L 2375 4384 
L 1825 4384 
Q 1516 4384 1395 4259 
Q 1275 4134 1275 3809 
L 1275 3500 
L 2222 3500 
L 2222 3053 
L 1275 3053 
L 1275 0 
L 697 0 
L 697 3053 
L 147 3053 
L 147 3500 
L 697 3500 
L 697 3744 
Q 697 4328 969 4595 
Q 1241 4863 1831 4863 
L 2375 4863 
z
" transform="scale(0.015625)"/>
       <path id="DejaVuSans-72" d="M 2631 2963 
Q 2534 3019 2420 3045 
Q 2306 3072 2169 3072 
Q 1681 3072 1420 2755 
Q 1159 2438 1159 1844 
L 1159 0 
L 581 0 
L 581 3500 
L 1159 3500 
L 1159 2956 
Q 1341 3275 1631 3429 
Q 1922 3584 2338 3584 
Q 2397 3584 2469 3576 
Q 2541 3569 2628 3553 
L 2631 2963 
z
" transform="scale(0.015625)"/>
       <path id="DejaVuSans-61" d="M 2194 1759 
Q 1497 1759 1228 1600 
Q 959 1441 959 1056 
Q 959 750 1161 570 
Q 1363 391 1709 391 
Q 2188 391 2477 730 
Q 2766 1069 2766 1631 
L 2766 1759 
L 2194 1759 
z
M 3341 1997 
L 3341 0 
L 2766 0 
L 2766 531 
Q 2569 213 2275 61 
Q 1981 -91 1556 -91 
Q 1019 -91 701 211 
Q 384 513 384 1019 
Q 384 1609 779 1909 
Q 1175 2209 1959 2209 
L 2766 2209 
L 2766 2266 
Q 2766 2663 2505 2880 
Q 2244 3097 1772 3097 
Q 1472 3097 1187 3025 
Q 903 2953 641 2809 
L 641 3341 
Q 956 3463 1253 3523 
Q 1550 3584 1831 3584 
Q 2591 3584 2966 3190 
Q 3341 2797 3341 1997 
z
" transform="scale(0.015625)"/>
       <path id="DejaVuSans-63" d="M 3122 3366 
L 3122 2828 
Q 2878 2963 2633 3030 
Q 2388 3097 2138 3097 
Q 1578 3097 1268 2742 
Q 959 2388 959 1747 
Q 959 1106 1268 751 
Q 1578 397 2138 397 
Q 2388 397 2633 464 
Q 2878 531 3122 666 
L 3122 134 
Q 2881 22 2623 -34 
Q 2366 -91 2075 -91 
Q 1284 -91 818 406 
Q 353 903 353 1747 
Q 353 2603 823 3093 
Q 1294 3584 2113 3584 
Q 2378 3584 2631 3529 
Q 2884 3475 3122 3366 
z
" transform="scale(0.015625)"/>
       <path id="DejaVuSans-74" d="M 1172 4494 
L 1172 3500 
L 2356 3500 
L 2356 3053 
L 1172 3053 
L 1172 1153 
Q 1172 725 1289 603 
Q 1406 481 1766 481 
L 2356 481 
L 2356 0 
L 1766 0 
Q 1100 0 847 248 
Q 594 497 594 1153 
L 594 3053 
L 172 3053 
L 172 3500 
L 594 3500 
L 594 4494 
L 1172 4494 
z
" transform="scale(0.015625)"/>
       <path id="DejaVuSans-20" transform="scale(0.015625)"/>
       <path id="DejaVuSans-68" d="M 3513 2113 
L 3513 0 
L 2938 0 
L 2938 2094 
Q 2938 2591 2744 2837 
Q 2550 3084 2163 3084 
Q 1697 3084 1428 2787 
Q 1159 2491 1159 1978 
L 1159 0 
L 581 0 
L 581 4863 
L 1159 4863 
L 1159 2956 
Q 1366 3272 1645 3428 
Q 1925 3584 2291 3584 
Q 2894 3584 3203 3211 
Q 3513 2838 3513 2113 
z
" transform="scale(0.015625)"/>
       <path id="DejaVuSans-6b" d="M 581 4863 
L 1159 4863 
L 1159 1991 
L 2875 3500 
L 3609 3500 
L 1753 1863 
L 3688 0 
L 2938 0 
L 1159 1709 
L 1159 0 
L 581 0 
L 581 4863 
z
" transform="scale(0.015625)"/>
      </defs>
      <use xlink:href="#DejaVuSans-66"/>
      <use xlink:href="#DejaVuSans-72" transform="translate(35.205078 0)"/>
      <use xlink:href="#DejaVuSans-61" transform="translate(76.318359 0)"/>
      <use xlink:href="#DejaVuSans-63" transform="translate(137.597656 0)"/>
      <use xlink:href="#DejaVuSans-74" transform="translate(192.578125 0)"/>
      <use xlink:href="#DejaVuSans-69" transform="translate(231.787109 0)"/>
      <use xlink:href="#DejaVuSans-6f" transform="translate(259.570312 0)"/>
      <use xlink:href="#DejaVuSans-6e" transform="translate(320.751953 0)"/>
      <use xlink:href="#DejaVuSans-20" transform="translate(384.130859 0)"/>
      <use xlink:href="#DejaVuSans-6f" transform="translate(415.917969 0)"/>
      <use xlink:href="#DejaVuSans-66" transform="translate(477.099609 0)"/>
      <use xlink:href="#DejaVuSans-20" transform="translate(512.304688 0)"/>
      <use xlink:href="#DejaVuSans-63" transform="translate(544.091797 0)"/>
      <use xlink:href="#DejaVuSans-68" transform="translate(599.072266 0)"/>
      <use xlink:href="#DejaVuSans-65" transform="translate(662.451172 0)"/>
      <use xlink:href="#DejaVuSans-63" transform="translate(723.974609 0)"/>
      <use xlink:href="#DejaVuSans-6b" transform="translate(778.955078 0)"/>
      <use xlink:href="#DejaVuSans-73" transform="translate(836.865234 0)"/>
     </g>
    </g>
   </g>
   <g id="line2d_25">
    <path d="M 49.086532 29.410188 
L 105.808846 29.410188 
L 162.53116 29.410188 
L 238.160912 29.410188 
" clip-path="url(#p28a93af399)" style="fill: none; stroke: #1f77b4; stroke-width: 1.5; stroke-linecap: square"/>
    <defs>
     <path id="me890a95297" d="M 0 3 
C 0.795609 3 1.55874 2.683901 2.12132 2.12132 
C 2.683901 1.55874 3 0.795609 3 0 
C 3 -0.795609 2.683901 -1.55874 2.12132 -2.12132 
C 1.55874 -2.683901 0.795609 -3 0 -3 
C -0.795609 -3 -1.55874 -2.683901 -2.12132 -2.12132 
C -2.683901 -1.55874 -3 -0.795609 -3 0 
C -3 0.795609 -2.683901 1.55874 -2.12132 2.12132 
C -1.55874 2.683901 -0.795609 3 0 3 
z
" style="stroke: #1f77b4"/>
    </defs>
    <g clip-path="url(#p28a93af399)">
     <use xlink:href="#me890a95297" x="49.086532" y="29.410188" style="fill: #1f77b4; stroke: #1f77b4"/>
     <use xlink:href="#me890a95297" x="105.808846" y="29.410188" style="fill: #1f77b4; stroke: #1f77b4"/>
     <use xlink:href="#me890a95297" x="162.53116" y="29.410188" style="fill: #1f77b4; stroke: #1f77b4"/>
     <use xlink:href="#me890a95297" x="238.160912" y="29.410188" style="fill: #1f77b4; stroke: #1f77b4"/>
    </g>
   </g>
   <g id="line2d_26">
    <path d="M 49.086532 29.410188 
" clip-path="url(#p28a93af399)" style="fill: none; stroke: #ff7f0e; stroke-width: 1.5; stroke-linecap: square"/>
    <defs>
     <path id="md33fd3950a" d="M 0 3 
C 0.795609 3 1.55874 2.683901 2.12132 2.12132 
C 2.683901 1.55874 3 0.795609 3 0 
C 3 -0.795609 2.683901 -1.55874 2.12132 -2.12132 
C 1.55874 -2.683901 0.795609 -3 0 -3 
C -0.795609 -3 -1.55874 -2.683901 -2.12132 -2.12132 
C -2.683901 -1.55874 -3 -0.795609 -3 0 
C -3 0.795609 -2.683901 1.55874 -2.12132 2.12132 
C -1.55874 2.683901 -0.795609 3 0 3 
z
" style="stroke: #ff7f0e"/>
    </defs>
    <g clip-path="url(#p28a93af399)">
     <use xlink:href="#md33fd3950a" x="49.086532" y="29.410188" style="fill: #ff7f0e; stroke: #ff7f0e"/>
    </g>
   </g>
   <g id="line2d_27">
    <path d="M 49.086532 29.410188 
L 105.808846 29.410188 
L 162.53116 29.410188 
L 238.160912 29.410188 
" clip-path="url(#p28a93af399)" style="fill: none; stroke: #2ca02c; stroke-width: 1.5; stroke-linecap: square"/>
    <defs>
     <path id="m0c8fa2c775" d="M 0 3 
C 0.795609 3 1.55874 2.683901 2.12132 2.12132 
C 2.683901 1.55874 3 0.795609 3 0 
C 3 -0.795609 2.683901 -1.55874 2.12132 -2.12132 
C 1.55874 -2.683901 0.795609 -3 0 -3 
C -0.795609 -3 -1.55874 -2.683901 -2.12132 -2.12132 
C -2.683901 -1.55874 -3 -0.795609 -3 0 
C -3 0.795609 -2.683901 1.55874 -2.12132 2.12132 
C -1.55874 2.683901 -0.795609 3 0 3 
z
" style="stroke: #2ca02c"/>
    </defs>
    <g clip-path="url(#p28a93af399)">
     <use xlink:href="#m0c8fa2c775" x="49.086532" y="29.410188" style="fill: #2ca02c; stroke: #2ca02c"/>
     <use xlink:href="#m0c8fa2c775" x="105.808846" y="29.410188" style="fill: #2ca02c; stroke: #2ca02c"/>
     <use xlink:href="#m0c8fa2c775" x="162.53116" y="29.410188" style="fill: #2ca02c; stroke: #2ca02c"/>
     <use xlink:href="#m0c8fa2c775" x="238.160912" y="29.410188" style="fill: #2ca02c; stroke: #2ca02c"/>
    </g>
   </g>
   <g id="line2d_28">
    <path d="M 49.086532 29.410188 
L 105.808846 29.410188 
L 162.53116 29.410188 
L 238.160912 29.410188 
" clip-path="url(#p28a93af399)" style="fill: none; stroke: #d62728; stroke-width: 1.5; stroke-linecap: square"/>
    <defs>
     <path id="m084234f0f5" d="M 0 3 
C 0.795609 3 1.55874 2.683901 2.12132 2.12132 
C 2.683901 1.55874 3 0.795609 3 0 
C 3 -0.795609 2.683901 -1.55874 2.12132 -2.12132 
C 1.55874 -2.683901 0.795609 -3 0 -3 
C -0.795609 -3 -1.55874 -2.683901 -2.12132 -2.12132 
C -2.683901 -1.55874 -3 -0.795609 -3 0 
C -3 0.795609 -2.683901 1.55874 -2.12132 2.12132 
C -1.55874 2.683901 -0.795609 3 0 3 
z
" style="stroke: #d62728"/>
    </defs>
    <g clip-path="url(#p28a93af399)">
     <use xlink:href="#m084234f0f5" x="49.086532" y="29.410188" style="fill: #d62728; stroke: #d62728"/>
     <use xlink:href="#m084234f0f5" x="105.808846" y="29.410188" style="fill: #d62728; stroke: #d62728"/>
     <use xlink:href="#m084234f0f5" x="162.53116" y="29.410188" style="fill: #d62728; stroke: #d62728"/>
     <use xlink:href="#m084234f0f5" x="238.160912" y="29.410188" style="fill: #d62728; stroke: #d62728"/>
    </g>
   </g>
   <g id="line2d_29">
    <path d="M 49.086532 29.410188 
L 105.808846 29.410188 
L 162.53116 29.410188 
L 238.160912 29.410188 
" clip-path="url(#p28a93af399)" style="fill: none; stroke: #9467bd; stroke-width: 1.5; stroke-linecap: square"/>
    <defs>
     <path id="me461b4eb16" d="M 0 3 
C 0.795609 3 1.55874 2.683901 2.12132 2.12132 
C 2.683901 1.55874 3 0.795609 3 0 
C 3 -0.795609 2.683901 -1.55874 2.12132 -2.12132 
C 1.55874 -2.683901 0.795609 -3 0 -3 
C -0.795609 -3 -1.55874 -2.683901 -2.12132 -2.12132 
C -2.683901 -1.55874 -3 -0.795609 -3 0 
C -3 0.795609 -2.683901 1.55874 -2.12132 2.12132 
C -1.55874 2.683901 -0.795609 3 0 3 
z
" style="stroke: #9467bd"/>
    </defs>
    <g clip-path="url(#p28a93af399)">
     <use xlink:href="#me461b4eb16" x="49.086532" y="29.410188" style="fill: #9467bd; stroke: #9467bd"/>
     <use xlink:href="#me461b4eb16" x="105.808846" y="29.410188" style="fill: #9467bd; stroke: #9467bd"/>
     <use xlink:href="#me461b4eb16" x="162.53116" y="29.410188" style="fill: #9467bd; stroke: #9467bd"/>
     <use xlink:href="#me461b4eb16" x="238.160912" y="29.410188" style="fill: #9467bd; stroke: #9467bd"/>
    </g>
   </g>
   <g id="patch_3">
    <path d="M 39.632812 209.338188 
L 39.632812 20.842187 
" style="fill: none; stroke: #000000; stroke-width: 0.8; stroke-linejoin: miter; stroke-linecap: square"/>
   </g>
   <g id="patch_4">
    <path d="M 39.632812 209.338188 
L 247.614631 209.338188 
" style="fill: none; stroke: #000000; stroke-width: 0.8; stroke-linejoin: miter; stroke-linecap: square"/>
   </g>
   <g id="text_15">
    <!-- dP_beta/dk &lt; 0 -->
    <g transform="translate(105.356534 14.842188) scale(0.1 -0.1)">
     <defs>
      <path id="DejaVuSans-64" d="M 2906 2969 
L 2906 4863 
L 3481 4863 
L 3481 0 
L 2906 0 
L 2906 525 
Q 2725 213 2448 61 
Q 2172 -91 1784 -91 
Q 1150 -91 751 415 
Q 353 922 353 1747 
Q 353 2572 751 3078 
Q 1150 3584 1784 3584 
Q 2172 3584 2448 3432 
Q 2725 3281 2906 2969 
z
M 947 1747 
Q 947 1113 1208 752 
Q 1469 391 1925 391 
Q 2381 391 2643 752 
Q 2906 1113 2906 1747 
Q 2906 2381 2643 2742 
Q 2381 3103 1925 3103 
Q 1469 3103 1208 2742 
Q 947 2381 947 1747 
z
" transform="scale(0.015625)"/>
      <path id="DejaVuSans-50" d="M 1259 4147 
L 1259 2394 
L 2053 2394 
Q 2494 2394 2734 2622 
Q 2975 2850 2975 3272 
Q 2975 3691 2734 3919 
Q 2494 4147 2053 4147 
L 1259 4147 
z
M 628 4666 
L 2053 4666 
Q 2838 4666 3239 4311 
Q 3641 3956 3641 3272 
Q 3641 2581 3239 2228 
Q 2838 1875 2053 1875 
L 1259 1875 
L 1259 0 
L 628 0 
L 628 4666 
z
" transform="scale(0.015625)"/>
      <path id="DejaVuSans-5f" d="M 3263 -1063 
L 3263 -1509 
L -63 -1509 
L -63 -1063 
L 3263 -1063 
z
" transform="scale(0.015625)"/>
      <path id="DejaVuSans-62" d="M 3116 1747 
Q 3116 2381 2855 2742 
Q 2594 3103 2138 3103 
Q 1681 3103 1420 2742 
Q 1159 2381 1159 1747 
Q 1159 1113 1420 752 
Q 1681 391 2138 391 
Q 2594 391 2855 752 
Q 3116 1113 3116 1747 
z
M 1159 2969 
Q 1341 3281 1617 3432 
Q 1894 3584 2278 3584 
Q 2916 3584 3314 3078 
Q 3713 2572 3713 1747 
Q 3713 922 3314 415 
Q 2916 -91 2278 -91 
Q 1894 -91 1617 61 
Q 1341 213 1159 525 
L 1159 0 
L 581 0 
L 581 4863 
L 1159 4863 
L 1159 2969 
z
" transform="scale(0.015625)"/>
      <path id="DejaVuSans-2f" d="M 1625 4666 
L 2156 4666 
L 531 -594 
L 0 -594 
L 1625 4666 
z
" transform="scale(0.015625)"/>
      <path id="DejaVuSans-3c" d="M 4684 3150 
L 1459 2003 
L 4684 863 
L 4684 294 
L 678 1747 
L 678 2266 
L 4684 3719 
L 4684 3150 
z
" transform="scale(0.015625)"/>
     </defs>
     <use xlink:href="#DejaVuSans-64"/>
     <use xlink:href="#DejaVuSans-50" transform="translate(63.476562 0)"/>
     <use xlink:href="#DejaVuSans-5f" transform="translate(123.779297 0)"/>
     <use xlink:href="#DejaVuSans-62" transform="translate(173.779297 0)"/>
     <use xlink:href="#DejaVuSans-65" transform="translate(237.255859 0)"/>
     <use xlink:href="#DejaVuSans-74" transform="translate(298.779297 0)"/>
     <use xlink:href="#DejaVuSans-61" transform="translate(337.988281 0)"/>
     <use xlink:href="#DejaVuSans-2f" transform="translate(399.267578 0)"/>
     <use xlink:href="#DejaVuSans-64" transform="translate(432.958984 0)"/>
     <use xlink:href="#DejaVuSans-6b" transform="translate(496.435547 0)"/>
     <use xlink:href="#DejaVuSans-20" transform="translate(554.345703 0)"/>
     <use xlink:href="#DejaVuSans-3c" transform="translate(586.132812 0)"/>
     <use xlink:href="#DejaVuSans-20" transform="translate(669.921875 0)"/>
     <use xlink:href="#DejaVuSans-30" transform="translate(701.708984 0)"/>
    </g>
   </g>
  </g>
  <g id="axes_2">
   <g id="patch_5">
    <path d="M 289.210994 209.338188 
L 497.192812 209.338188 
L 497.192812 20.842188 
L 289.210994 20.842188 
z
" style="fill: #ffffff"/>
   </g>
   <g id="matplotlib.axis_3">
    <g id="xtick_7">
     <g id="line2d_30">
      <path d="M 298.664713 209.338188 
L 298.664713 20.842188 
" clip-path="url(#pbae7d6246a)" style="fill: none; stroke: #b0b0b0; stroke-opacity: 0.25; stroke-width: 0.8; stroke-linecap: square"/>
     </g>
     <g id="line2d_31">
      <g>
       <use xlink:href="#mdb9fd32427" x="298.664713" y="209.338188" style="stroke: #000000; stroke-width: 0.8"/>
      </g>
     </g>
     <g id="text_16">
      <!-- 0.00 -->
      <g transform="translate(289.758463 222.416937) scale(0.08 -0.08)">
       <use xlink:href="#DejaVuSans-30"/>
       <use xlink:href="#DejaVuSans-2e" transform="translate(63.623047 0)"/>
       <use xlink:href="#DejaVuSans-30" transform="translate(95.410156 0)"/>
       <use xlink:href="#DejaVuSans-30" transform="translate(159.033203 0)"/>
      </g>
     </g>
    </g>
    <g id="xtick_8">
     <g id="line2d_32">
      <path d="M 336.479589 209.338188 
L 336.479589 20.842188 
" clip-path="url(#pbae7d6246a)" style="fill: none; stroke: #b0b0b0; stroke-opacity: 0.25; stroke-width: 0.8; stroke-linecap: square"/>
     </g>
     <g id="line2d_33">
      <g>
       <use xlink:href="#mdb9fd32427" x="336.479589" y="209.338188" style="stroke: #000000; stroke-width: 0.8"/>
      </g>
     </g>
     <g id="text_17">
      <!-- 0.02 -->
      <g transform="translate(327.573339 222.416937) scale(0.08 -0.08)">
       <use xlink:href="#DejaVuSans-30"/>
       <use xlink:href="#DejaVuSans-2e" transform="translate(63.623047 0)"/>
       <use xlink:href="#DejaVuSans-30" transform="translate(95.410156 0)"/>
       <use xlink:href="#DejaVuSans-32" transform="translate(159.033203 0)"/>
      </g>
     </g>
    </g>
    <g id="xtick_9">
     <g id="line2d_34">
      <path d="M 374.294465 209.338188 
L 374.294465 20.842188 
" clip-path="url(#pbae7d6246a)" style="fill: none; stroke: #b0b0b0; stroke-opacity: 0.25; stroke-width: 0.8; stroke-linecap: square"/>
     </g>
     <g id="line2d_35">
      <g>
       <use xlink:href="#mdb9fd32427" x="374.294465" y="209.338188" style="stroke: #000000; stroke-width: 0.8"/>
      </g>
     </g>
     <g id="text_18">
      <!-- 0.04 -->
      <g transform="translate(365.388215 222.416937) scale(0.08 -0.08)">
       <use xlink:href="#DejaVuSans-30"/>
       <use xlink:href="#DejaVuSans-2e" transform="translate(63.623047 0)"/>
       <use xlink:href="#DejaVuSans-30" transform="translate(95.410156 0)"/>
       <use xlink:href="#DejaVuSans-34" transform="translate(159.033203 0)"/>
      </g>
     </g>
    </g>
    <g id="xtick_10">
     <g id="line2d_36">
      <path d="M 412.109341 209.338188 
L 412.109341 20.842188 
" clip-path="url(#pbae7d6246a)" style="fill: none; stroke: #b0b0b0; stroke-opacity: 0.25; stroke-width: 0.8; stroke-linecap: square"/>
     </g>
     <g id="line2d_37">
      <g>
       <use xlink:href="#mdb9fd32427" x="412.109341" y="209.338188" style="stroke: #000000; stroke-width: 0.8"/>
      </g>
     </g>
     <g id="text_19">
      <!-- 0.06 -->
      <g transform="translate(403.203091 222.416937) scale(0.08 -0.08)">
       <use xlink:href="#DejaVuSans-30"/>
       <use xlink:href="#DejaVuSans-2e" transform="translate(63.623047 0)"/>
       <use xlink:href="#DejaVuSans-30" transform="translate(95.410156 0)"/>
       <use xlink:href="#DejaVuSans-36" transform="translate(159.033203 0)"/>
      </g>
     </g>
    </g>
    <g id="xtick_11">
     <g id="line2d_38">
      <path d="M 449.924217 209.338188 
L 449.924217 20.842188 
" clip-path="url(#pbae7d6246a)" style="fill: none; stroke: #b0b0b0; stroke-opacity: 0.25; stroke-width: 0.8; stroke-linecap: square"/>
     </g>
     <g id="line2d_39">
      <g>
       <use xlink:href="#mdb9fd32427" x="449.924217" y="209.338188" style="stroke: #000000; stroke-width: 0.8"/>
      </g>
     </g>
     <g id="text_20">
      <!-- 0.08 -->
      <g transform="translate(441.017967 222.416937) scale(0.08 -0.08)">
       <use xlink:href="#DejaVuSans-30"/>
       <use xlink:href="#DejaVuSans-2e" transform="translate(63.623047 0)"/>
       <use xlink:href="#DejaVuSans-30" transform="translate(95.410156 0)"/>
       <use xlink:href="#DejaVuSans-38" transform="translate(159.033203 0)"/>
      </g>
     </g>
    </g>
    <g id="xtick_12">
     <g id="line2d_40">
      <path d="M 487.739093 209.338188 
L 487.739093 20.842188 
" clip-path="url(#pbae7d6246a)" style="fill: none; stroke: #b0b0b0; stroke-opacity: 0.25; stroke-width: 0.8; stroke-linecap: square"/>
     </g>
     <g id="line2d_41">
      <g>
       <use xlink:href="#mdb9fd32427" x="487.739093" y="209.338188" style="stroke: #000000; stroke-width: 0.8"/>
      </g>
     </g>
     <g id="text_21">
      <!-- 0.10 -->
      <g transform="translate(478.832843 222.416937) scale(0.08 -0.08)">
       <use xlink:href="#DejaVuSans-30"/>
       <use xlink:href="#DejaVuSans-2e" transform="translate(63.623047 0)"/>
       <use xlink:href="#DejaVuSans-31" transform="translate(95.410156 0)"/>
       <use xlink:href="#DejaVuSans-30" transform="translate(159.033203 0)"/>
      </g>
     </g>
    </g>
    <g id="text_22">
     <!-- epsilon -->
     <g transform="translate(377.126357 234.919281) scale(0.09 -0.09)">
      <use xlink:href="#DejaVuSans-65"/>
      <use xlink:href="#DejaVuSans-70" transform="translate(61.523438 0)"/>
      <use xlink:href="#DejaVuSans-73" transform="translate(125 0)"/>
      <use xlink:href="#DejaVuSans-69" transform="translate(177.099609 0)"/>
      <use xlink:href="#DejaVuSans-6c" transform="translate(204.882812 0)"/>
      <use xlink:href="#DejaVuSans-6f" transform="translate(232.666016 0)"/>
      <use xlink:href="#DejaVuSans-6e" transform="translate(293.847656 0)"/>
     </g>
    </g>
   </g>
   <g id="matplotlib.axis_4">
    <g id="ytick_7">
     <g id="line2d_42">
      <path d="M 289.210994 200.770187 
L 497.192812 200.770187 
" clip-path="url(#pbae7d6246a)" style="fill: none; stroke: #b0b0b0; stroke-opacity: 0.25; stroke-width: 0.8; stroke-linecap: square"/>
     </g>
     <g id="line2d_43">
      <g>
       <use xlink:href="#m4bd8d1f057" x="289.210994" y="200.770187" style="stroke: #000000; stroke-width: 0.8"/>
      </g>
     </g>
     <g id="text_23">
      <!-- 0.0 -->
      <g transform="translate(269.488494 203.809562) scale(0.08 -0.08)">
       <use xlink:href="#DejaVuSans-30"/>
       <use xlink:href="#DejaVuSans-2e" transform="translate(63.623047 0)"/>
       <use xlink:href="#DejaVuSans-30" transform="translate(95.410156 0)"/>
      </g>
     </g>
    </g>
    <g id="ytick_8">
     <g id="line2d_44">
      <path d="M 289.210994 166.498188 
L 497.192812 166.498188 
" clip-path="url(#pbae7d6246a)" style="fill: none; stroke: #b0b0b0; stroke-opacity: 0.25; stroke-width: 0.8; stroke-linecap: square"/>
     </g>
     <g id="line2d_45">
      <g>
       <use xlink:href="#m4bd8d1f057" x="289.210994" y="166.498188" style="stroke: #000000; stroke-width: 0.8"/>
      </g>
     </g>
     <g id="text_24">
      <!-- 0.2 -->
      <g transform="translate(269.488494 169.537563) scale(0.08 -0.08)">
       <use xlink:href="#DejaVuSans-30"/>
       <use xlink:href="#DejaVuSans-2e" transform="translate(63.623047 0)"/>
       <use xlink:href="#DejaVuSans-32" transform="translate(95.410156 0)"/>
      </g>
     </g>
    </g>
    <g id="ytick_9">
     <g id="line2d_46">
      <path d="M 289.210994 132.226187 
L 497.192812 132.226187 
" clip-path="url(#pbae7d6246a)" style="fill: none; stroke: #b0b0b0; stroke-opacity: 0.25; stroke-width: 0.8; stroke-linecap: square"/>
     </g>
     <g id="line2d_47">
      <g>
       <use xlink:href="#m4bd8d1f057" x="289.210994" y="132.226187" style="stroke: #000000; stroke-width: 0.8"/>
      </g>
     </g>
     <g id="text_25">
      <!-- 0.4 -->
      <g transform="translate(269.488494 135.265562) scale(0.08 -0.08)">
       <use xlink:href="#DejaVuSans-30"/>
       <use xlink:href="#DejaVuSans-2e" transform="translate(63.623047 0)"/>
       <use xlink:href="#DejaVuSans-34" transform="translate(95.410156 0)"/>
      </g>
     </g>
    </g>
    <g id="ytick_10">
     <g id="line2d_48">
      <path d="M 289.210994 97.954187 
L 497.192812 97.954187 
" clip-path="url(#pbae7d6246a)" style="fill: none; stroke: #b0b0b0; stroke-opacity: 0.25; stroke-width: 0.8; stroke-linecap: square"/>
     </g>
     <g id="line2d_49">
      <g>
       <use xlink:href="#m4bd8d1f057" x="289.210994" y="97.954187" style="stroke: #000000; stroke-width: 0.8"/>
      </g>
     </g>
     <g id="text_26">
      <!-- 0.6 -->
      <g transform="translate(269.488494 100.993562) scale(0.08 -0.08)">
       <use xlink:href="#DejaVuSans-30"/>
       <use xlink:href="#DejaVuSans-2e" transform="translate(63.623047 0)"/>
       <use xlink:href="#DejaVuSans-36" transform="translate(95.410156 0)"/>
      </g>
     </g>
    </g>
    <g id="ytick_11">
     <g id="line2d_50">
      <path d="M 289.210994 63.682187 
L 497.192812 63.682187 
" clip-path="url(#pbae7d6246a)" style="fill: none; stroke: #b0b0b0; stroke-opacity: 0.25; stroke-width: 0.8; stroke-linecap: square"/>
     </g>
     <g id="line2d_51">
      <g>
       <use xlink:href="#m4bd8d1f057" x="289.210994" y="63.682187" style="stroke: #000000; stroke-width: 0.8"/>
      </g>
     </g>
     <g id="text_27">
      <!-- 0.8 -->
      <g transform="translate(269.488494 66.721563) scale(0.08 -0.08)">
       <use xlink:href="#DejaVuSans-30"/>
       <use xlink:href="#DejaVuSans-2e" transform="translate(63.623047 0)"/>
       <use xlink:href="#DejaVuSans-38" transform="translate(95.410156 0)"/>
      </g>
     </g>
    </g>
    <g id="ytick_12">
     <g id="line2d_52">
      <path d="M 289.210994 29.410187 
L 497.192812 29.410187 
" clip-path="url(#pbae7d6246a)" style="fill: none; stroke: #b0b0b0; stroke-opacity: 0.25; stroke-width: 0.8; stroke-linecap: square"/>
     </g>
     <g id="line2d_53">
      <g>
       <use xlink:href="#m4bd8d1f057" x="289.210994" y="29.410187" style="stroke: #000000; stroke-width: 0.8"/>
      </g>
     </g>
     <g id="text_28">
      <!-- 1.0 -->
      <g transform="translate(269.488494 32.449562) scale(0.08 -0.08)">
       <use xlink:href="#DejaVuSans-31"/>
       <use xlink:href="#DejaVuSans-2e" transform="translate(63.623047 0)"/>
       <use xlink:href="#DejaVuSans-30" transform="translate(95.410156 0)"/>
      </g>
     </g>
    </g>
    <g id="text_29">
     <!-- fraction of checks -->
     <g transform="translate(263.616776 155.093078) rotate(-90) scale(0.09 -0.09)">
      <use xlink:href="#DejaVuSans-66"/>
      <use xlink:href="#DejaVuSans-72" transform="translate(35.205078 0)"/>
      <use xlink:href="#DejaVuSans-61" transform="translate(76.318359 0)"/>
      <use xlink:href="#DejaVuSans-63" transform="translate(137.597656 0)"/>
      <use xlink:href="#DejaVuSans-74" transform="translate(192.578125 0)"/>
      <use xlink:href="#DejaVuSans-69" transform="translate(231.787109 0)"/>
      <use xlink:href="#DejaVuSans-6f" transform="translate(259.570312 0)"/>
      <use xlink:href="#DejaVuSans-6e" transform="translate(320.751953 0)"/>
      <use xlink:href="#DejaVuSans-20" transform="translate(384.130859 0)"/>
      <use xlink:href="#DejaVuSans-6f" transform="translate(415.917969 0)"/>
      <use xlink:href="#DejaVuSans-66" transform="translate(477.099609 0)"/>
      <use xlink:href="#DejaVuSans-20" transform="translate(512.304688 0)"/>
      <use xlink:href="#DejaVuSans-63" transform="translate(544.091797 0)"/>
      <use xlink:href="#DejaVuSans-68" transform="translate(599.072266 0)"/>
      <use xlink:href="#DejaVuSans-65" transform="translate(662.451172 0)"/>
      <use xlink:href="#DejaVuSans-63" transform="translate(723.974609 0)"/>
      <use xlink:href="#DejaVuSans-6b" transform="translate(778.955078 0)"/>
      <use xlink:href="#DejaVuSans-73" transform="translate(836.865234 0)"/>
     </g>
    </g>
   </g>
   <g id="line2d_54">
    <path d="M 298.664713 29.410188 
L 355.387027 29.410188 
L 412.109341 29.410188 
L 487.739093 29.410188 
" clip-path="url(#pbae7d6246a)" style="fill: none; stroke: #1f77b4; stroke-width: 1.5; stroke-linecap: square"/>
    <g clip-path="url(#pbae7d6246a)">
     <use xlink:href="#me890a95297" x="298.664713" y="29.410188" style="fill: #1f77b4; stroke: #1f77b4"/>
     <use xlink:href="#me890a95297" x="355.387027" y="29.410188" style="fill: #1f77b4; stroke: #1f77b4"/>
     <use xlink:href="#me890a95297" x="412.109341" y="29.410188" style="fill: #1f77b4; stroke: #1f77b4"/>
     <use xlink:href="#me890a95297" x="487.739093" y="29.410188" style="fill: #1f77b4; stroke: #1f77b4"/>
    </g>
   </g>
   <g id="line2d_55">
    <path d="M 298.664713 29.410188 
" clip-path="url(#pbae7d6246a)" style="fill: none; stroke: #ff7f0e; stroke-width: 1.5; stroke-linecap: square"/>
    <g clip-path="url(#pbae7d6246a)">
     <use xlink:href="#md33fd3950a" x="298.664713" y="29.410188" style="fill: #ff7f0e; stroke: #ff7f0e"/>
    </g>
   </g>
   <g id="line2d_56">
    <path d="M 298.664713 29.410188 
L 355.387027 29.410188 
L 412.109341 29.410188 
L 487.739093 29.410188 
" clip-path="url(#pbae7d6246a)" style="fill: none; stroke: #2ca02c; stroke-width: 1.5; stroke-linecap: square"/>
    <g clip-path="url(#pbae7d6246a)">
     <use xlink:href="#m0c8fa2c775" x="298.664713" y="29.410188" style="fill: #2ca02c; stroke: #2ca02c"/>
     <use xlink:href="#m0c8fa2c775" x="355.387027" y="29.410188" style="fill: #2ca02c; stroke: #2ca02c"/>
     <use xlink:href="#m0c8fa2c775" x="412.109341" y="29.410188" style="fill: #2ca02c; stroke: #2ca02c"/>
     <use xlink:href="#m0c8fa2c775" x="487.739093" y="29.410188" style="fill: #2ca02c; stroke: #2ca02c"/>
    </g>
   </g>
   <g id="line2d_57">
    <path d="M 298.664713 29.410188 
L 355.387027 29.410188 
L 412.109341 29.410188 
L 487.739093 29.410188 
" clip-path="url(#pbae7d6246a)" style="fill: none; stroke: #d62728; stroke-width: 1.5; stroke-linecap: square"/>
    <g clip-path="url(#pbae7d6246a)">
     <use xlink:href="#m084234f0f5" x="298.664713" y="29.410188" style="fill: #d62728; stroke: #d62728"/>
     <use xlink:href="#m084234f0f5" x="355.387027" y="29.410188" style="fill: #d62728; stroke: #d62728"/>
     <use xlink:href="#m084234f0f5" x="412.109341" y="29.410188" style="fill: #d62728; stroke: #d62728"/>
     <use xlink:href="#m084234f0f5" x="487.739093" y="29.410188" style="fill: #d62728; stroke: #d62728"/>
    </g>
   </g>
   <g id="line2d_58">
    <path d="M 298.664713 29.410188 
L 355.387027 29.410188 
L 412.109341 29.410188 
L 487.739093 29.410188 
" clip-path="url(#pbae7d6246a)" style="fill: none; stroke: #9467bd; stroke-width: 1.5; stroke-linecap: square"/>
    <g clip-path="url(#pbae7d6246a)">
     <use xlink:href="#me461b4eb16" x="298.664713" y="29.410188" style="fill: #9467bd; stroke: #9467bd"/>
     <use xlink:href="#me461b4eb16" x="355.387027" y="29.410188" style="fill: #9467bd; stroke: #9467bd"/>
     <use xlink:href="#me461b4eb16" x="412.109341" y="29.410188" style="fill: #9467bd; stroke: #9467bd"/>
     <use xlink:href="#me461b4eb16" x="487.739093" y="29.410188" style="fill: #9467bd; stroke: #9467bd"/>
    </g>
   </g>
   <g id="patch_6">
    <path d="M 289.210994 209.338188 
L 289.210994 20.842187 
" style="fill: none; stroke: #000000; stroke-width: 0.8; stroke-linejoin: miter; stroke-linecap: square"/>
   </g>
   <g id="patch_7">
    <path d="M 289.210994 209.338188 
L 497.192812 209.338188 
" style="fill: none; stroke: #000000; stroke-width: 0.8; stroke-linejoin: miter; stroke-linecap: square"/>
   </g>
   <g id="text_30">
    <!-- |dP_SMR/dk| &lt;= C epsilon -->
    <g transform="translate(327.927685 14.842188) scale(0.1 -0.1)">
     <defs>
      <path id="DejaVuSans-7c" d="M 1344 4891 
L 1344 -1509 
L 813 -1509 
L 813 4891 
L 1344 4891 
z
" transform="scale(0.015625)"/>
      <path id="DejaVuSans-53" d="M 3425 4513 
L 3425 3897 
Q 3066 4069 2747 4153 
Q 2428 4238 2131 4238 
Q 1616 4238 1336 4038 
Q 1056 3838 1056 3469 
Q 1056 3159 1242 3001 
Q 1428 2844 1947 2747 
L 2328 2669 
Q 3034 2534 3370 2195 
Q 3706 1856 3706 1288 
Q 3706 609 3251 259 
Q 2797 -91 1919 -91 
Q 1588 -91 1214 -16 
Q 841 59 441 206 
L 441 856 
Q 825 641 1194 531 
Q 1563 422 1919 422 
Q 2459 422 2753 634 
Q 3047 847 3047 1241 
Q 3047 1584 2836 1778 
Q 2625 1972 2144 2069 
L 1759 2144 
Q 1053 2284 737 2584 
Q 422 2884 422 3419 
Q 422 4038 858 4394 
Q 1294 4750 2059 4750 
Q 2388 4750 2728 4690 
Q 3069 4631 3425 4513 
z
" transform="scale(0.015625)"/>
      <path id="DejaVuSans-4d" d="M 628 4666 
L 1569 4666 
L 2759 1491 
L 3956 4666 
L 4897 4666 
L 4897 0 
L 4281 0 
L 4281 4097 
L 3078 897 
L 2444 897 
L 1241 4097 
L 1241 0 
L 628 0 
L 628 4666 
z
" transform="scale(0.015625)"/>
      <path id="DejaVuSans-52" d="M 2841 2188 
Q 3044 2119 3236 1894 
Q 3428 1669 3622 1275 
L 4263 0 
L 3584 0 
L 2988 1197 
Q 2756 1666 2539 1819 
Q 2322 1972 1947 1972 
L 1259 1972 
L 1259 0 
L 628 0 
L 628 4666 
L 2053 4666 
Q 2853 4666 3247 4331 
Q 3641 3997 3641 3322 
Q 3641 2881 3436 2590 
Q 3231 2300 2841 2188 
z
M 1259 4147 
L 1259 2491 
L 2053 2491 
Q 2509 2491 2742 2702 
Q 2975 2913 2975 3322 
Q 2975 3731 2742 3939 
Q 2509 4147 2053 4147 
L 1259 4147 
z
" transform="scale(0.015625)"/>
      <path id="DejaVuSans-3d" d="M 678 2906 
L 4684 2906 
L 4684 2381 
L 678 2381 
L 678 2906 
z
M 678 1631 
L 4684 1631 
L 4684 1100 
L 678 1100 
L 678 1631 
z
" transform="scale(0.015625)"/>
      <path id="DejaVuSans-43" d="M 4122 4306 
L 4122 3641 
Q 3803 3938 3442 4084 
Q 3081 4231 2675 4231 
Q 1875 4231 1450 3742 
Q 1025 3253 1025 2328 
Q 1025 1406 1450 917 
Q 1875 428 2675 428 
Q 3081 428 3442 575 
Q 3803 722 4122 1019 
L 4122 359 
Q 3791 134 3420 21 
Q 3050 -91 2638 -91 
Q 1578 -91 968 557 
Q 359 1206 359 2328 
Q 359 3453 968 4101 
Q 1578 4750 2638 4750 
Q 3056 4750 3426 4639 
Q 3797 4528 4122 4306 
z
" transform="scale(0.015625)"/>
     </defs>
     <use xlink:href="#DejaVuSans-7c"/>
     <use xlink:href="#DejaVuSans-64" transform="translate(33.691406 0)"/>
     <use xlink:href="#DejaVuSans-50" transform="translate(97.167969 0)"/>
     <use xlink:href="#DejaVuSans-5f" transform="translate(157.470703 0)"/>
     <use xlink:href="#DejaVuSans-53" transform="translate(207.470703 0)"/>
     <use xlink:href="#DejaVuSans-4d" transform="translate(270.947266 0)"/>
     <use xlink:href="#DejaVuSans-52" transform="translate(357.226562 0)"/>
     <use xlink:href="#DejaVuSans-2f" transform="translate(426.708984 0)"/>
     <use xlink:href="#DejaVuSans-64" transform="translate(460.400391 0)"/>
     <use xlink:href="#DejaVuSans-6b" transform="translate(523.876953 0)"/>
     <use xlink:href="#DejaVuSans-7c" transform="translate(581.787109 0)"/>
     <use xlink:href="#DejaVuSans-20" transform="translate(615.478516 0)"/>
     <use xlink:href="#DejaVuSans-3c" transform="translate(647.265625 0)"/>
     <use xlink:href="#DejaVuSans-3d" transform="translate(731.054688 0)"/>
     <use xlink:href="#DejaVuSans-20" transform="translate(814.84375 0)"/>
     <use xlink:href="#DejaVuSans-43" transform="translate(846.630859 0)"/>
     <use xlink:href="#DejaVuSans-20" transform="translate(916.455078 0)"/>
     <use xlink:href="#DejaVuSans-65" transform="translate(948.242188 0)"/>
     <use xlink:href="#DejaVuSans-70" transform="translate(1009.765625 0)"/>
     <use xlink:href="#DejaVuSans-73" transform="translate(1073.242188 0)"/>
     <use xlink:href="#DejaVuSans-69" transform="translate(1125.341797 0)"/>
     <use xlink:href="#DejaVuSans-6c" transform="translate(1153.125 0)"/>
     <use xlink:href="#DejaVuSans-6f" transform="translate(1180.908203 0)"/>
     <use xlink:href="#DejaVuSans-6e" transform="translate(1242.089844 0)"/>
    </g>
   </g>
   <g id="legend_1">
    <g id="patch_8">
     <path d="M 294.110994 205.838188 
L 401.964588 205.838188 
Q 403.364588 205.838188 403.364588 204.438187 
L 403.364588 152.986 
Q 403.364588 151.586 401.964588 151.586 
L 294.110994 151.586 
Q 292.710994 151.586 292.710994 152.986 
L 292.710994 204.438187 
Q 292.710994 205.838188 294.110994 205.838188 
z
" style="fill: #ffffff; opacity: 0.8; stroke: #cccccc; stroke-linejoin: miter"/>
    </g>
    <g id="line2d_59">
     <path d="M 295.510994 157.254906 
L 302.510994 157.254906 
L 309.510994 157.254906 
" style="fill: none; stroke: #1f77b4; stroke-width: 1.5; stroke-linecap: square"/>
     <g>
      <use xlink:href="#me890a95297" x="302.510994" y="157.254906" style="fill: #1f77b4; stroke: #1f77b4"/>
     </g>
    </g>
    <g id="text_31">
     <!-- asymmetric_fast_to_smr -->
     <g transform="translate(315.110994 159.704906) scale(0.07 -0.07)">
      <defs>
       <path id="DejaVuSans-79" d="M 2059 -325 
Q 1816 -950 1584 -1140 
Q 1353 -1331 966 -1331 
L 506 -1331 
L 506 -850 
L 844 -850 
Q 1081 -850 1212 -737 
Q 1344 -625 1503 -206 
L 1606 56 
L 191 3500 
L 800 3500 
L 1894 763 
L 2988 3500 
L 3597 3500 
L 2059 -325 
z
" transform="scale(0.015625)"/>
       <path id="DejaVuSans-6d" d="M 3328 2828 
Q 3544 3216 3844 3400 
Q 4144 3584 4550 3584 
Q 5097 3584 5394 3201 
Q 5691 2819 5691 2113 
L 5691 0 
L 5113 0 
L 5113 2094 
Q 5113 2597 4934 2840 
Q 4756 3084 4391 3084 
Q 3944 3084 3684 2787 
Q 3425 2491 3425 1978 
L 3425 0 
L 2847 0 
L 2847 2094 
Q 2847 2600 2669 2842 
Q 2491 3084 2119 3084 
Q 1678 3084 1418 2786 
Q 1159 2488 1159 1978 
L 1159 0 
L 581 0 
L 581 3500 
L 1159 3500 
L 1159 2956 
Q 1356 3278 1631 3431 
Q 1906 3584 2284 3584 
Q 2666 3584 2933 3390 
Q 3200 3197 3328 2828 
z
" transform="scale(0.015625)"/>
      </defs>
      <use xlink:href="#DejaVuSans-61"/>
      <use xlink:href="#DejaVuSans-73" transform="translate(61.279297 0)"/>
      <use xlink:href="#DejaVuSans-79" transform="translate(113.378906 0)"/>
      <use xlink:href="#DejaVuSans-6d" transform="translate(172.558594 0)"/>
      <use xlink:href="#DejaVuSans-6d" transform="translate(269.970703 0)"/>
      <use xlink:href="#DejaVuSans-65" transform="translate(367.382812 0)"/>
      <use xlink:href="#DejaVuSans-74" transform="translate(428.90625 0)"/>
      <use xlink:href="#DejaVuSans-72" transform="translate(468.115234 0)"/>
      <use xlink:href="#DejaVuSans-69" transform="translate(509.228516 0)"/>
      <use xlink:href="#DejaVuSans-63" transform="translate(537.011719 0)"/>
      <use xlink:href="#DejaVuSans-5f" transform="translate(591.992188 0)"/>
      <use xlink:href="#DejaVuSans-66" transform="translate(641.992188 0)"/>
      <use xlink:href="#DejaVuSans-61" transform="translate(677.197266 0)"/>
      <use xlink:href="#DejaVuSans-73" transform="translate(738.476562 0)"/>
      <use xlink:href="#DejaVuSans-74" transform="translate(790.576172 0)"/>
      <use xlink:href="#DejaVuSans-5f" transform="translate(829.785156 0)"/>
      <use xlink:href="#DejaVuSans-74" transform="translate(879.785156 0)"/>
      <use xlink:href="#DejaVuSans-6f" transform="translate(918.994141 0)"/>
      <use xlink:href="#DejaVuSans-5f" transform="translate(980.175781 0)"/>
      <use xlink:href="#DejaVuSans-73" transform="translate(1030.175781 0)"/>
      <use xlink:href="#DejaVuSans-6d" transform="translate(1082.275391 0)"/>
      <use xlink:href="#DejaVuSans-72" transform="translate(1179.6875 0)"/>
     </g>
    </g>
    <g id="line2d_60">
     <path d="M 295.510994 167.724281 
L 302.510994 167.724281 
L 309.510994 167.724281 
" style="fill: none; stroke: #ff7f0e; stroke-width: 1.5; stroke-linecap: square"/>
     <g>
      <use xlink:href="#md33fd3950a" x="302.510994" y="167.724281" style="fill: #ff7f0e; stroke: #ff7f0e"/>
     </g>
    </g>
    <g id="text_32">
     <!-- none -->
     <g transform="translate(315.110994 170.174281) scale(0.07 -0.07)">
      <use xlink:href="#DejaVuSans-6e"/>
      <use xlink:href="#DejaVuSans-6f" transform="translate(63.378906 0)"/>
      <use xlink:href="#DejaVuSans-6e" transform="translate(124.560547 0)"/>
      <use xlink:href="#DejaVuSans-65" transform="translate(187.939453 0)"/>
     </g>
    </g>
    <g id="line2d_61">
     <path d="M 295.510994 177.998969 
L 302.510994 177.998969 
L 309.510994 177.998969 
" style="fill: none; stroke: #2ca02c; stroke-width: 1.5; stroke-linecap: square"/>
     <g>
      <use xlink:href="#m0c8fa2c775" x="302.510994" y="177.998969" style="fill: #2ca02c; stroke: #2ca02c"/>
     </g>
    </g>
    <g id="text_33">
     <!-- symmetric_amplitude -->
     <g transform="translate(315.110994 180.448969) scale(0.07 -0.07)">
      <defs>
       <path id="DejaVuSans-75" d="M 544 1381 
L 544 3500 
L 1119 3500 
L 1119 1403 
Q 1119 906 1312 657 
Q 1506 409 1894 409 
Q 2359 409 2629 706 
Q 2900 1003 2900 1516 
L 2900 3500 
L 3475 3500 
L 3475 0 
L 2900 0 
L 2900 538 
Q 2691 219 2414 64 
Q 2138 -91 1772 -91 
Q 1169 -91 856 284 
Q 544 659 544 1381 
z
M 1991 3584 
L 1991 3584 
z
" transform="scale(0.015625)"/>
      </defs>
      <use xlink:href="#DejaVuSans-73"/>
      <use xlink:href="#DejaVuSans-79" transform="translate(52.099609 0)"/>
      <use xlink:href="#DejaVuSans-6d" transform="translate(111.279297 0)"/>
      <use xlink:href="#DejaVuSans-6d" transform="translate(208.691406 0)"/>
      <use xlink:href="#DejaVuSans-65" transform="translate(306.103516 0)"/>
      <use xlink:href="#DejaVuSans-74" transform="translate(367.626953 0)"/>
      <use xlink:href="#DejaVuSans-72" transform="translate(406.835938 0)"/>
      <use xlink:href="#DejaVuSans-69" transform="translate(447.949219 0)"/>
      <use xlink:href="#DejaVuSans-63" transform="translate(475.732422 0)"/>
      <use xlink:href="#DejaVuSans-5f" transform="translate(530.712891 0)"/>
      <use xlink:href="#DejaVuSans-61" transform="translate(580.712891 0)"/>
      <use xlink:href="#DejaVuSans-6d" transform="translate(641.992188 0)"/>
      <use xlink:href="#DejaVuSans-70" transform="translate(739.404297 0)"/>
      <use xlink:href="#DejaVuSans-6c" transform="translate(802.880859 0)"/>
      <use xlink:href="#DejaVuSans-69" transform="translate(830.664062 0)"/>
      <use xlink:href="#DejaVuSans-74" transform="translate(858.447266 0)"/>
      <use xlink:href="#DejaVuSans-75" transform="translate(897.65625 0)"/>
      <use xlink:href="#DejaVuSans-64" transform="translate(961.035156 0)"/>
      <use xlink:href="#DejaVuSans-65" transform="translate(1024.511719 0)"/>
     </g>
    </g>
    <g id="line2d_62">
     <path d="M 295.510994 188.468344 
L 302.510994 188.468344 
L 309.510994 188.468344 
" style="fill: none; stroke: #d62728; stroke-width: 1.5; stroke-linecap: square"/>
     <g>
      <use xlink:href="#m084234f0f5" x="302.510994" y="188.468344" style="fill: #d62728; stroke: #d62728"/>
     </g>
    </g>
    <g id="text_34">
     <!-- symmetric_linear -->
     <g transform="translate(315.110994 190.918344) scale(0.07 -0.07)">
      <use xlink:href="#DejaVuSans-73"/>
      <use xlink:href="#DejaVuSans-79" transform="translate(52.099609 0)"/>
      <use xlink:href="#DejaVuSans-6d" transform="translate(111.279297 0)"/>
      <use xlink:href="#DejaVuSans-6d" transform="translate(208.691406 0)"/>
      <use xlink:href="#DejaVuSans-65" transform="translate(306.103516 0)"/>
      <use xlink:href="#DejaVuSans-74" transform="translate(367.626953 0)"/>
      <use xlink:href="#DejaVuSans-72" transform="translate(406.835938 0)"/>
      <use xlink:href="#DejaVuSans-69" transform="translate(447.949219 0)"/>
      <use xlink:href="#DejaVuSans-63" transform="translate(475.732422 0)"/>
      <use xlink:href="#DejaVuSans-5f" transform="translate(530.712891 0)"/>
      <use xlink:href="#DejaVuSans-6c" transform="translate(580.712891 0)"/>
      <use xlink:href="#DejaVuSans-69" transform="translate(608.496094 0)"/>
      <use xlink:href="#DejaVuSans-6e" transform="translate(636.279297 0)"/>
      <use xlink:href="#DejaVuSans-65" transform="translate(699.658203 0)"/>
      <use xlink:href="#DejaVuSans-61" transform="translate(761.181641 0)"/>
      <use xlink:href="#DejaVuSans-72" transform="translate(822.460938 0)"/>
     </g>
    </g>
    <g id="line2d_63">
     <path d="M 295.510994 198.937719 
L 302.510994 198.937719 
L 309.510994 198.937719 
" style="fill: none; stroke: #9467bd; stroke-width: 1.5; stroke-linecap: square"/>
     <g>
      <use xlink:href="#me461b4eb16" x="302.510994" y="198.937719" style="fill: #9467bd; stroke: #9467bd"/>
     </g>
    </g>
    <g id="text_35">
     <!-- weak_phase -->
     <g transform="translate(315.110994 201.387719) scale(0.07 -0.07)">
      <defs>
       <path id="DejaVuSans-77" d="M 269 3500 
L 844 3500 
L 1563 769 
L 2278 3500 
L 2956 3500 
L 3675 769 
L 4391 3500 
L 4966 3500 
L 4050 0 
L 3372 0 
L 2619 2869 
L 1863 0 
L 1184 0 
L 269 3500 
z
" transform="scale(0.015625)"/>
      </defs>
      <use xlink:href="#DejaVuSans-77"/>
      <use xlink:href="#DejaVuSans-65" transform="translate(81.787109 0)"/>
      <use xlink:href="#DejaVuSans-61" transform="translate(143.310547 0)"/>
      <use xlink:href="#DejaVuSans-6b" transform="translate(204.589844 0)"/>
      <use xlink:href="#DejaVuSans-5f" transform="translate(262.5 0)"/>
      <use xlink:href="#DejaVuSans-70" transform="translate(312.5 0)"/>
      <use xlink:href="#DejaVuSans-68" transform="translate(375.976562 0)"/>
      <use xlink:href="#DejaVuSans-61" transform="translate(439.355469 0)"/>
      <use xlink:href="#DejaVuSans-73" transform="translate(500.634766 0)"/>
      <use xlink:href="#DejaVuSans-65" transform="translate(552.734375 0)"/>
     </g>
    </g>
   </g>
  </g>
 </g>
 <defs>
  <clipPath id="p28a93af399">
   <rect x="39.632812" y="20.842188" width="207.981818" height="188.496"/>
  </clipPath>
  <clipPath id="pbae7d6246a">
   <rect x="289.210994" y="20.842188" width="207.981818" height="188.496"/>
  </clipPath>
 </defs>
</svg>
